<svg xmlns="http://www.w3.org/2000/svg" xml:space="preserve" width="2000" height="229" data-id="lg_aYDwHZFkXILaYuZBn7" data-version="1" viewBox="0 0 2000 229"><g data-padding="20"><g transform="translate(10 4.104)scale(.96416)"><rect width="586.952" height="241.373" x="365.811" y="-421.718" fill="none" rx="0" ry="0" transform="matrix(.95 0 0 .95 400.48 400.48)"/><path fill="#2d4f8f" d="M792.61 154.315h-22.782q-.997 0-.997-.998l.399-139.413q0-.788.788-.788h65q.997 0 .997.789V36.8q0 .788-.798.788h-41.61V69.1h41.61q.798 0 .798.988l.2 22.99q0 .788-.998.788h-41.61v59.45q0 .998-.997.998m72.627 0h-22.99q-.988 0-.988-.998l.2-139.413q0-.788.788-.788h22.79q.789 0 .789.789l.2 139.412q0 .997-.789.997m27.721.002h-20.311q-1.587 0-1.587-1.397l-.19-138.216q0-1.586 1.577-1.586h18.335l34.286 79.962-.998-78.375q0-1.587 1.786-1.587h20.112q1.197 0 1.197 1.586l.19 138.415q0 1.197-.988 1.197h-17.832l-35.178-74.717 1.491 73.13q0 1.587-1.89 1.587"/><path fill="#2d4f8f" d="M986.495 156.29q-10.802 0-19.922-5.548-9.015-5.548-14.411-14.81-5.406-9.262-5.406-20.368v-9.31q0-1.092.988-1.092h22.79q.798 0 .798 1.092v9.31q0 6.64 4.456 11.448 4.456 4.806 10.706 4.806 6.337 0 10.792-4.902 4.465-4.911 4.465-11.352 0-7.43-9.709-12.977-1.586-.988-4.113-2.422-2.527-1.444-5.995-3.325t-6.735-3.715q-3.278-1.833-6.346-3.515-11.096-6.545-16.502-16.397-5.396-9.861-5.396-22.144 0-11.296 5.548-20.416 5.548-9.015 14.516-14.316t19.475-5.301q10.792 0 19.817 5.348 9.016 5.453 14.412 14.469t5.396 20.216v16.644q0 .788-.789.788h-22.79q-.789 0-.789-.788l-.199-16.644q0-7.135-4.456-11.6-4.465-4.455-10.602-4.455-6.25 0-10.706 4.759-4.455 4.75-4.455 11.296 0 6.63 2.821 11.096 2.822 4.455 10.355 8.52.789.39 3.667 1.977 2.869 1.587 6.394 3.525 3.515 1.928 6.384 3.467 2.878 1.53 3.467 1.834 10.108 5.643 16.008 13.87 5.89 8.217 5.89 20.206 0 11.6-5.349 20.815-5.453 9.215-14.468 14.563t-20.007 5.349m64.885-1.976h-22.981q-.997 0-.997-.997l.199-139.413q0-.788.798-.788h22.781q.798 0 .798.789l.2 139.412q0 .997-.798.997m42.797 1.966q-10.991 0-19.817-5.453-8.911-5.443-14.316-14.658-5.397-9.215-5.397-20.615V51.249q0-11.096 5.444-20.206 5.358-9.215 14.373-14.716t19.713-5.5q11.2 0 20.216 5.348 9.015 5.453 14.316 14.564 5.301 9.12 5.301 20.51v9.32q0 .788-.988.788h-22.79q-.788 0-.788-.788v-7.733q0-7.724-4.361-12.778t-10.906-5.054q-5.842 0-10.402 4.855-4.56 4.854-4.56 11.39v64.306q0 6.64 4.465 11.447 4.455 4.807 10.497 4.807 6.546 0 10.906-4.712 4.36-4.702 4.36-11.542V105.55h-14.174q-1.092 0-1.092-.988V81.868q0-.988 1.093-.988h37.952q.789 0 .789.988v33.687q0 11.4-5.349 20.615-5.453 9.215-14.364 14.658-8.92 5.453-20.121 5.453m64.894-1.966h-22.99q-.788 0-.788-.998l.2-139.413q0-.788.987-.788h22.591q.988 0 .988.789l-.19 55.195h30.42V13.905q0-.79.788-.79h22.591q.988 0 .988.79l.399 139.412q0 .997-.988.997h-22.79q-.988 0-.988-.997v-59.65h-30.42v59.65q0 .997-.798.997"/><path fill="#2d4f8f" d="M1261.918 154.315h-22.895q-.893 0-.893-.998V37.587h-26.353q-.988 0-.988-.987l.2-22.695q0-.79.788-.79h77.093q1.083 0 1.083.79V36.6q0 .988-.789.988h-26.657l.2 115.729q0 .997-.789.997"/></g><path fill="transparent" stroke="transparent" d="M721 0h558v229H721z"/></g></svg>